<svg width="16" height="16" viewBox="0 0 16 16" fill="none" xmlns="http://www.w3.org/2000/svg">
<g clip-path="url(#clip0_105_601)">
<path d="M1.93335 6.9927C0.960347 5.22555 1.83219 3.21736 3.52586 2.12145C4.21574 1.67506 5.13403 1.84394 5.61996 2.50657L6.62504 3.87714C7.06845 4.48179 7.13641 5.28365 6.80109 5.9543L6.52794 6.5006C6.44886 6.65874 6.43636 6.84168 6.51725 6.99891C6.66461 7.28535 6.97842 7.79297 7.58295 8.3975C8.18748 9.00203 8.69511 9.31585 8.98155 9.46321C9.13878 9.5441 9.32171 9.53159 9.47986 9.45252L10.0262 9.17937C10.6968 8.84405 11.4987 8.91201 12.1033 9.35541L13.4739 10.3605C14.1365 10.8464 14.3054 11.7647 13.859 12.4546C12.7631 14.1483 10.7549 15.0201 8.98776 14.0471C7.83445 13.4121 6.44753 12.4475 4.99023 10.9902C3.53292 9.53292 2.56836 8.14601 1.93335 6.9927Z" fill="white"/>
</g>
<defs>
<clipPath id="clip0_105_601">
<rect width="16" height="16" fill="white"/>
</clipPath>
</defs>
</svg>
